<svg width="37" height="37" viewBox="0 0 37 37" fill="none" xmlns="http://www.w3.org/2000/svg">
<path d="M5.85757 13.1414L13.1414 5.85758L23.4423 5.85758L30.7262 13.1414L30.7262 23.4424L23.4423 30.7262L13.1414 30.7262L5.85757 23.4424L5.85757 13.1414Z" stroke="white"/>
<path d="M14.47 20.16H13.07V22H12.35V20.16H8.4V19.64L12.11 15H12.91L9.33 19.52H12.37V17.9H13.07V19.52H14.47V20.16ZM17.9213 22.06C17.3813 22.06 16.898 21.9167 16.4713 21.63C16.0513 21.3433 15.7213 20.9333 15.4813 20.4C15.248 19.86 15.1313 19.2267 15.1313 18.5C15.1313 17.7733 15.248 17.1433 15.4813 16.61C15.7213 16.07 16.0513 15.6567 16.4713 15.37C16.898 15.0833 17.3813 14.94 17.9213 14.94C18.4613 14.94 18.9413 15.0833 19.3613 15.37C19.788 15.6567 20.1213 16.07 20.3613 16.61C20.6013 17.1433 20.7213 17.7733 20.7213 18.5C20.7213 19.2267 20.6013 19.86 20.3613 20.4C20.1213 20.9333 19.788 21.3433 19.3613 21.63C18.9413 21.9167 18.4613 22.06 17.9213 22.06ZM17.9213 21.4C18.328 21.4 18.6847 21.2867 18.9913 21.06C19.3047 20.8333 19.548 20.5033 19.7213 20.07C19.8947 19.6367 19.9813 19.1133 19.9813 18.5C19.9813 17.8867 19.8947 17.3633 19.7213 16.93C19.548 16.4967 19.3047 16.1667 18.9913 15.94C18.6847 15.7133 18.328 15.6 17.9213 15.6C17.5147 15.6 17.1547 15.7133 16.8413 15.94C16.5347 16.1667 16.2947 16.4967 16.1213 16.93C15.948 17.3633 15.8613 17.8867 15.8613 18.5C15.8613 19.1133 15.948 19.6367 16.1213 20.07C16.2947 20.5033 16.5347 20.8333 16.8413 21.06C17.1547 21.2867 17.5147 21.4 17.9213 21.4ZM27.7024 20.16H26.3024V22H25.5824V20.16H21.6324V19.64L25.3424 15H26.1424L22.5624 19.52H25.6024V17.9H26.3024V19.52H27.7024V20.16Z" fill="white"/>
</svg>
