<svg width="32" height="32" viewBox="0 0 32 32" fill="none" xmlns="http://www.w3.org/2000/svg">
<line x1="22.7777" y1="4" x2="22.7777" y2="15" stroke="white" stroke-width="2" stroke-linecap="round"/>
<line x1="17" y1="9.22223" x2="28" y2="9.22223" stroke="white" stroke-width="2" stroke-linecap="round"/>
<path d="M16.5 5C17.0523 5 17.5 4.55228 17.5 4C17.5 3.44772 17.0523 3 16.5 3V5ZM16.5 28C10.1487 28 5 22.8513 5 16.5H3C3 23.9558 9.04416 30 16.5 30V28ZM5 16.5C5 10.1487 10.1487 5 16.5 5V3C9.04416 3 3 9.04416 3 16.5H5Z" fill="white"/>
<path d="M29.5 16.5C29.5 15.9477 29.0523 15.5 28.5 15.5C27.9477 15.5 27.5 15.9477 27.5 16.5H29.5ZM27.5 16.5C27.5 22.8513 22.3513 28 16 28V30C23.4558 30 29.5 23.9558 29.5 16.5H27.5Z" fill="white"/>
</svg>
