<svg width="32" height="32" viewBox="0 0 32 32" fill="none" xmlns="http://www.w3.org/2000/svg">
<path d="M25 28.5C25.2761 28.5 25.5 28.2761 25.5 28C25.5 27.7239 25.2761 27.5 25 27.5V28.5ZM4.5 7C4.5 6.72386 4.27614 6.5 4 6.5C3.72386 6.5 3.5 6.72386 3.5 7H4.5ZM25 27.5H5V28.5H25V27.5ZM4.5 27V7H3.5V27H4.5ZM5 27.5C4.72386 27.5 4.5 27.2761 4.5 27H3.5C3.5 27.8284 4.17157 28.5 5 28.5V27.5Z" fill="white"/>
<path d="M25.5 18.5C25.5 18.2239 25.2761 18 25 18C24.7239 18 24.5 18.2239 24.5 18.5H25.5ZM14.5 7.5C14.7761 7.5 15 7.27614 15 7C15 6.72386 14.7761 6.5 14.5 6.5V7.5ZM24.5 18.5V28H25.5V18.5H24.5ZM4 7.5L14.5 7.5V6.5L4 6.5V7.5Z" fill="white"/>
<line x1="19.4571" y1="10.6279" x2="21.5784" y2="12.7493" stroke="white" stroke-linecap="round"/>
<path d="M21.2464 12.3891C21.0512 12.5844 21.0512 12.9009 21.2464 13.0962C21.4417 13.2915 21.7583 13.2915 21.9535 13.0962L21.2464 12.3891ZM26.1962 8.85356C26.3914 8.6583 26.3914 8.34171 26.1962 8.14645C26.0009 7.95119 25.6843 7.95119 25.4891 8.14645L26.1962 8.85356ZM21.9535 13.0962L26.1962 8.85356L25.4891 8.14645L21.2464 12.3891L21.9535 13.0962Z" fill="white"/>
<circle cx="22.5" cy="10.5" r="6" stroke="white"/>
</svg>
