<svg width="32" height="32" viewBox="0 0 32 32" fill="none" xmlns="http://www.w3.org/2000/svg">
<path d="M25 28.5C25.2761 28.5 25.5 28.2761 25.5 28C25.5 27.7239 25.2761 27.5 25 27.5V28.5ZM4.5 7C4.5 6.72386 4.27614 6.5 4 6.5C3.72386 6.5 3.5 6.72386 3.5 7H4.5ZM25 27.5H5V28.5H25V27.5ZM4.5 27V7H3.5V27H4.5ZM5 27.5C4.72386 27.5 4.5 27.2761 4.5 27H3.5C3.5 27.8284 4.17157 28.5 5 28.5V27.5Z" fill="white"/>
<path d="M25.5 11.8462C25.5 11.57 25.2761 11.3462 25 11.3462C24.7239 11.3462 24.5 11.57 24.5 11.8462H25.5ZM20.1538 7.5C20.43 7.5 20.6538 7.27614 20.6538 7C20.6538 6.72386 20.43 6.5 20.1538 6.5V7.5ZM24.5 11.8462L24.5 28H25.5L25.5 11.8462H24.5ZM4 7.5L20.1538 7.5V6.5L4 6.5V7.5Z" fill="white"/>
<rect x="24.5394" y="5.45209" width="2.90414" height="9.54581" transform="rotate(45 24.5394 5.45209)" fill="white"/>
<path d="M25.2394 4.70711C25.63 4.31658 26.2631 4.31658 26.6536 4.70711L27.293 5.34643C27.6835 5.73696 27.6835 6.37012 27.293 6.76065L26.835 7.21857L24.7815 5.16503L25.2394 4.70711Z" fill="white"/>
<path d="M17.0268 15.0254L17.6778 12.5961L19.4562 14.3745L17.0268 15.0254Z" fill="white"/>
</svg>
