<svg width="32" height="32" viewBox="0 0 32 32" fill="none" xmlns="http://www.w3.org/2000/svg">
<path d="M6 16.6913C6 15.9307 6.81547 15.4485 7.48192 15.8151L15.5181 20.2349C15.8182 20.4 16.1818 20.4 16.4819 20.2349L24.5181 15.8151C25.1845 15.4485 26 15.9307 26 16.6913V24C26 24.5523 25.5523 25 25 25H7C6.44772 25 6 24.5523 6 24V16.6913Z" fill="white"/>
<path d="M3 19.0427C3 18.4904 3.44772 18.0427 4 18.0427C4.55228 18.0427 5 18.4904 5 19.0427V23.0427H3V19.0427Z" fill="white"/>
<circle cx="4" cy="17.5427" r="1" fill="white"/>
<path d="M5.5 13H6.5L4.5 17H3.5L5.5 13Z" fill="white"/>
<path d="M16 7L29 12.5L16 18L3 12.5L16 7Z" fill="white"/>
</svg>
