<svg width="32" height="32" viewBox="0 0 32 32" fill="none" xmlns="http://www.w3.org/2000/svg">
<path d="M3 9.37806C3 9.16926 3.16926 9 3.37806 9C3.45734 9 3.53462 9.02493 3.59896 9.07125L15.4157 17.5793C15.7647 17.8306 16.2353 17.8306 16.5843 17.5793L28.401 9.07125C28.4654 9.02493 28.5427 9 28.6219 9C28.8307 9 29 9.16926 29 9.37806V22C29 22.5523 28.5523 23 28 23H4C3.44772 23 3 22.5523 3 22V9.37806Z" fill="white"/>
<path d="M4.41918 8H27.6704C27.8524 8 28 8.14755 28 8.32957C28 8.43647 27.9482 8.53672 27.8609 8.59851L16.578 16.5906C16.2317 16.8359 15.7683 16.8359 15.422 16.5906L4.13907 8.59851C4.05184 8.53672 4 8.43647 4 8.32957C4 8.14755 4.14755 8 4.32957 8H4.41918Z" fill="white"/>
</svg>
