<svg width="32" height="32" viewBox="0 0 32 32" fill="none" xmlns="http://www.w3.org/2000/svg">
<path d="M11.7858 26.0364C11.7858 26.2843 11.6041 26.4948 11.3589 26.5311L4.07321 27.6087C3.77122 27.6533 3.50005 27.4193 3.50005 27.114L3.50005 5.22572C3.50005 4.91075 3.78777 4.67423 4.09679 4.73517L11.3825 6.17197C11.6168 6.21818 11.7858 6.42367 11.7858 6.66252L11.7858 26.0364Z" stroke="white"/>
<path d="M20.2142 6.65326C20.2142 6.41442 20.3832 6.20893 20.6175 6.16271L27.9032 4.72592C28.2122 4.66497 28.4999 4.90149 28.4999 5.21647V27.1048C28.4999 27.4101 28.2288 27.6441 27.9268 27.5994L20.6411 26.5218C20.3959 26.4855 20.2142 26.2751 20.2142 26.0272V6.65326Z" stroke="white"/>
<rect x="11.8572" y="6.16211" width="8.28571" height="20.3571" stroke="white"/>
</svg>
